# xmcd
#
# Track frame offsets:
#	150
#	19593
#	34161
#	47342
#	65623
#	78298
#	91741
#	102062
#	115008
#	126670
#	140104
#	154194
#	164600
#	176234
#	188149
#	199774
#	210892
#	220501
#	236138
#	248541
#	270056
#	281802
#	293811
#	309954
#	326997
#
# Disc length: 4702 seconds
#
# Revision: 1
# Processed by: cddbd v1.5.2PL0 Copyright (c) Steve Scherf et al.
# Submitted via: EasyCDDAExtractor 12.0.1.1
#
DISCID=60125c19
DTITLE=Various Artist - Gangster Of Love Killer Souldies, Vol. 4
DYEAR=2010
DGENRE=Oldies
TTITLE0=The Caprells - Walk On By
TTITLE1=Calvin and The Catamounts - I Know My Baby Cares For Me
TTITLE2=The Hill Sisters - In The Rain
TTITLE3=The Notations - Take It Slow
TTITLE4=Shorty Long - Function At The Junction
TTITLE5=Barbara Acklin - Love Makes A Woman
TTITLE6=Bobby Wisdom - The Handwritings On The Wall
TTITLE7=Sam and Dave - I Thank You
TTITLE8=Doc and Sal - Can't Get You Off Of My Mind
TTITLE9=The Peoples Choice - I Likes To Do It
TTITLE10=Honey and The Bees - Please Have Mercy Baby
TTITLE11=The Volumes - I've Never Been So In Love
TTITLE12=Clarence Townsend - I Found A New Love
TTITLE13=Dyke and The Blazers - Funky Broadway, Pt. 1
TTITLE14=Lou Pride - Your Love Is Fading
TTITLE15=Barbara Mason - Just You And Me
TTITLE16=The Captions - Don't Take Away Your Love From Me
TTITLE17=Darling Dears - And I Love You
TTITLE18=Free Youth - You Take Too Much Time
TTITLE19=California Executives - I Don't Know Why
TTITLE20=Olivia Alexander - He's Gonna Love Me The Right Way, Pt. 2
TTITLE21=Donnie Wells - A Real Love
TTITLE22=Jacqueline Wilson - Keep In Touch
TTITLE23=Faces Of Truth - I Need Ya
TTITLE24=The Three Degrees - Maybe
EXTD=
EXTT0=
EXTT1=
EXTT2=
EXTT3=
EXTT4=
EXTT5=
EXTT6=
EXTT7=
EXTT8=
EXTT9=
EXTT10=
EXTT11=
EXTT12=
EXTT13=
EXTT14=
EXTT15=
EXTT16=
EXTT17=
EXTT18=
EXTT19=
EXTT20=
EXTT21=
EXTT22=
EXTT23=
EXTT24=
PLAYORDER=
